<svg width="65" height="65" viewBox="0 0 65 65" fill="none" xmlns="http://www.w3.org/2000/svg">
  <path d="M51.4597 4.0625H13.5419C8.30659 4.0625 4.0625 8.30659 4.0625 13.5419V51.4597C4.0625 56.695 8.30659 60.9391 13.5419 60.9391H51.4597C56.695 60.9391 60.9391 56.695 60.9391 51.4597V13.5419C60.9391 8.30659 56.695 4.0625 51.4597 4.0625Z" fill="#A7F175"/>
  <path d="M30.8206 43.3975C28.3528 43.3975 26.783 41.9004 26.783 40.0017C26.783 31.8762 48.1506 30.2495 48.1506 21.6204C48.1506 16.3562 42.0528 14.0873 34.2687 14.0873C29.5337 14.0873 24.18 14.9637 19.2078 16.5318V26.826C26.5352 21.4891 34.6763 19.2045 39.9204 19.2045C43.2178 19.2045 45.4552 20.1245 45.4552 21.773C45.4552 28.5645 15.986 27.4884 15.986 42.1637C15.986 47.7888 19.8538 51.0116 25.2955 51.0116C33.5265 51.0116 39.7523 43.0126 44.4101 33.262L45.3537 33.6009C42.9007 39.5595 37.8245 46.0929 36.8358 50.2928H47.4326V28.5648H44.9852C41.4328 36.2843 36.2269 43.3977 30.8213 43.3977" fill="black"/>
</svg>
