<svg width="83" height="83" viewBox="0 0 83 83" fill="none" xmlns="http://www.w3.org/2000/svg">
  <path d="M61.4219 0H21.5781C11.87 0 4 7.86999 4 17.5781V57.4219C4 67.13 11.87 75 21.5781 75H61.4219C71.13 75 79 67.13 79 57.4219V17.5781C79 7.86999 71.13 0 61.4219 0Z" fill="#00005B"/>
  <path d="M34.8077 45.7383H23.1827L20.8076 53.1132C20.7452 53.3944 20.4953 53.5819 20.2141 53.5509H14.3389C13.9952 53.5509 13.9015 53.3634 13.9952 52.9884L24.0578 24.1444C24.1516 23.8321 24.2453 23.5509 24.3701 23.1759C24.4952 22.5196 24.5576 21.832 24.5576 21.1444C24.5266 20.9883 24.6514 20.8321 24.8075 20.8008H32.9014C33.1202 20.8008 33.2764 20.8945 33.3077 21.0507L44.7139 52.9257C44.8076 53.2696 44.7139 53.4258 44.4016 53.4258H37.8701C37.6516 53.4571 37.4327 53.3007 37.3703 53.0821L34.8077 45.5821V45.7383ZM24.9953 39.5194H32.9327C32.7452 38.8632 32.495 38.0821 32.2138 37.2694C31.9325 36.4257 31.6513 35.5195 31.37 34.582C31.0577 33.6132 30.7765 32.6757 30.4639 31.7071C30.1513 30.7386 29.8703 29.8321 29.6201 28.9257C29.3702 28.0509 29.1514 27.2382 28.9325 26.4882H28.8701C28.5889 27.832 28.2452 29.1759 27.8075 30.5194C27.3388 32.0194 26.87 33.5821 26.3702 35.1445C25.9639 36.7383 25.4638 38.2069 24.9953 39.5194ZM63.1202 42.9258H53.2141C53.3389 43.8946 53.6515 44.8632 54.1826 45.7069C54.7451 46.5507 55.5265 47.2069 56.464 47.5819C57.7141 48.1134 59.089 48.3946 60.4639 48.3633C61.5578 48.3319 62.6515 48.2382 63.7141 48.0196C64.6671 47.8949 65.6011 47.6535 66.4952 47.3007C66.6514 47.1759 66.7451 47.2383 66.7451 47.5509V52.3321C66.7451 52.4569 66.7141 52.582 66.6827 52.7071C66.6203 52.8009 66.5576 52.8633 66.4639 52.9257C65.4645 53.3647 64.415 53.6795 63.3391 53.8632C61.8772 54.1444 60.3897 54.2701 58.9015 54.2382C56.5264 54.2382 54.5266 53.8632 52.9015 53.1445C51.3701 52.4883 50.0266 51.457 48.964 50.1759C47.9746 48.9719 47.2409 47.5789 46.8077 46.0819C46.3703 44.6133 46.1515 43.0819 46.1515 41.5195C46.1515 39.832 46.4014 38.1759 46.9328 36.5508C47.4309 34.9861 48.2268 33.5324 49.2766 32.2696C50.3078 31.0195 51.589 30.0196 53.0576 29.3007C54.5266 28.582 56.2765 28.3321 58.2766 28.3321C59.9327 28.3008 61.5889 28.6134 63.1202 29.3007C64.4014 29.8632 65.5264 30.7069 66.4015 31.8009C67.2139 32.8632 67.8701 34.0509 68.2765 35.3634C68.6828 36.6132 68.8703 37.8946 68.8703 39.1758C68.8703 39.9258 68.839 40.582 68.8076 41.1759C68.7452 41.7694 68.7139 42.2071 68.6828 42.4884C68.6515 42.7069 68.464 42.8944 68.2451 42.8944C68.0576 42.8944 67.714 42.9258 67.2139 42.9571C66.7141 43.0195 66.1202 43.0509 65.4016 43.0509C64.6826 43.0509 63.9326 42.9258 63.1202 42.9258ZM53.2141 38.3634H59.8076C60.6203 38.3634 61.2139 38.3634 61.5889 38.332C61.8391 38.3007 62.089 38.2383 62.3078 38.0821V37.7695C62.3088 37.3764 62.2455 36.9858 62.1203 36.6132C61.5578 34.8633 59.9014 33.6759 58.0577 33.7383C57.2096 33.6908 56.3658 33.8897 55.6283 34.3112C54.8908 34.7326 54.291 35.3586 53.9014 36.1134C53.5264 36.832 53.3078 37.582 53.2141 38.3634Z" fill="#9999FF"/>
</svg>
