<svg width="65" height="65" viewBox="0 0 65 65" fill="none" xmlns="http://www.w3.org/2000/svg">
  <path d="M58.3984 26.325L60.389 27.4625V28.3115L59.8203 30.2981L35.7012 35.9734L33.4343 30.3387L58.3984 26.325Z" fill="#FF7043"/>
  <path d="M49.3797 9.64026L52.1544 10.2212L52.8938 11.1312L53.5966 13.3046L53.3041 14.694L37.1231 36.8224L31.7281 31.4315L46.6497 11.8503L49.3797 9.64026Z" fill="#FF7043"/>
  <path d="M35.4209 6.18315L37.1231 5.04565L38.5409 5.6144L39.9588 7.60503L36.0709 30.9563L33.4303 29.1647L32.2969 26.0407L34.2875 8.45003L35.4209 6.18315Z" fill="#FF7043"/>
  <path d="M17.2209 6.55687L18.9678 4.3225L20.1094 4.0625L22.3763 4.39156L23.4934 5.26906L31.6347 23.3147L34.5759 31.8866L31.1309 33.8L18.005 9.9775L17.2209 6.55687Z" fill="#FF7043"/>
  <path d="M8.75064 18.9516L8.18188 16.6766L9.88814 14.6941L11.8706 14.9785H12.4394L24.3547 23.7738L28.0434 26.6094L33.15 30.5825L30.3144 35.4047L27.7591 33.4182L26.0569 31.716L9.60376 20.085L8.75064 18.9516Z" fill="#FF7043"/>
  <path d="M5.34625 33.7025L4.0625 32.2806V31.0213L5.34625 30.5825L19.8169 31.4356L33.9991 32.5691L33.54 35.3925L6.48375 33.9869L5.34625 33.7025Z" fill="#FF7043"/>
  <path d="M13.8572 48.4696H11.0216L9.89221 47.1696V45.6178L14.7103 42.2134L34.2916 29.7496L36.27 33.1337L13.8572 48.4696Z" fill="#FF7043"/>
  <path d="M19.2481 56.3997L18.1106 56.684L16.4125 55.8309L16.6969 54.409L33.4343 32.2847L35.7012 35.4047L23.2212 51.8578L19.2481 56.3997Z" fill="#FF7043"/>
  <path d="M33.4344 59.2353L32.5813 60.3728L30.8791 60.9416L29.4613 59.8041L28.6082 58.0978L32.8657 35.1244L35.421 35.4088L33.4344 59.2353Z" fill="#FF7043"/>
  <path d="M47.9009 52.9954V55.2622L47.6165 56.1154L46.4831 56.6841L44.4965 56.416L30.8628 36.1197L36.27 32.0004L40.8078 40.2269L41.2344 43.2047L47.9009 52.9954Z" fill="#FF7043"/>
  <path d="M54.4294 49.591L54.7138 51.0088L53.8607 52.1422L53.0075 51.8578L48.1853 48.4535L40.8119 41.9291L35.1366 37.956L36.8388 32.5691L39.6744 34.2713L41.3807 37.3913L54.4294 49.591Z" fill="#FF7043"/>
  <path d="M50.7407 35.1203L57.8338 35.689L59.536 36.8265L60.6694 38.5246V39.7515L57.5494 41.0799L41.661 37.1068L35.1366 36.8224L36.8388 30.8668L41.3766 34.2712L50.7407 35.1203Z" fill="#FF7043"/>
</svg>
