<svg width="65" height="73" viewBox="0 0 65 73" fill="none" xmlns="http://www.w3.org/2000/svg">
  <path d="M23.1055 65.5078C29.1484 65.5078 34.0234 60.6328 34.0234 54.5898V43.6719H23.1055C17.0625 43.6719 12.1875 48.5469 12.1875 54.5898C12.1875 60.6328 17.0625 65.5078 23.1055 65.5078Z" fill="#0ACF83"/>
  <path d="M12.1875 32.7539C12.1875 26.7109 17.0625 21.8359 23.1055 21.8359H34.0234V43.6719H23.1055C17.0625 43.6719 12.1875 38.7969 12.1875 32.7539Z" fill="#A259FF"/>
  <path d="M12.1875 10.918C12.1875 4.875 17.0625 0 23.1055 0H34.0234V21.8359H23.1055C17.0625 21.8359 12.1875 16.9609 12.1875 10.918Z" fill="#F24E1E"/>
  <path d="M34.0234 0H44.9414C50.9844 0 55.8594 4.875 55.8594 10.918C55.8594 16.9609 50.9844 21.8359 44.9414 21.8359H34.0234V0Z" fill="#FF7262"/>
  <path d="M55.8594 32.7539C55.8594 38.7969 50.9844 43.6719 44.9414 43.6719C38.8984 43.6719 34.0234 38.7969 34.0234 32.7539C34.0234 26.7109 38.8984 21.8359 44.9414 21.8359C50.9844 21.8359 55.8594 26.7109 55.8594 32.7539Z" fill="#1ABCFE"/>
</svg>
