<svg width="65" height="69" viewBox="0 0 65 69" fill="none" xmlns="http://www.w3.org/2000/svg">
  <path d="M47.6406 4H17.3594C9.9812 4 4 9.9812 4 17.3594V47.6406C4 55.0188 9.9812 61 17.3594 61H47.6406C55.0188 61 61 55.0188 61 47.6406V17.3594C61 9.9812 55.0188 4 47.6406 4Z" fill="#00005B"/>
  <path d="M16.0234 44.6748V20.2123C16.0234 20.0462 16.0947 19.9511 16.261 19.9511C16.6647 19.9511 17.0448 19.9511 17.5909 19.9273C18.1609 19.9037 18.7548 19.9037 19.396 19.8798C20.0373 19.856 20.7259 19.856 21.4623 19.8324C22.1984 19.8086 22.9109 19.8086 23.6234 19.8086C25.5709 19.8086 27.1859 20.0462 28.516 20.5449C29.7082 20.9498 30.7953 21.615 31.6984 22.4923C32.4636 23.2602 33.0548 24.1835 33.4323 25.1998C33.7885 26.1973 33.9784 27.2186 33.9784 28.2873C33.9784 30.3298 33.5034 32.0161 32.5534 33.3461C31.6034 34.676 30.2734 35.6735 28.7298 36.2435C27.1146 36.8373 25.3334 37.0511 23.386 37.0511C22.816 37.0511 22.4359 37.0511 22.1984 37.0273C21.961 37.0037 21.6284 37.0037 21.1773 37.0037V44.6274C21.2009 44.7935 21.0822 44.936 20.9159 44.9598H16.3084C16.1185 44.9598 16.0234 44.8648 16.0234 44.651V44.6748ZM21.2009 24.5585V32.5385C21.5335 32.5623 21.8421 32.5862 22.1271 32.5862H23.386C24.3123 32.5862 25.2385 32.4437 26.1171 32.1587C26.8773 31.9449 27.5421 31.4936 28.0647 30.8998C28.5634 30.3062 28.801 29.4986 28.801 28.4537C28.8233 27.7114 28.6338 26.9782 28.2546 26.3398C27.8509 25.7223 27.2809 25.2474 26.5923 24.986C25.7134 24.6298 24.7634 24.4873 23.7897 24.5111C23.1723 24.5111 22.6259 24.5111 22.1748 24.5349C21.6996 24.5111 21.3672 24.5349 21.2009 24.5585ZM37.3984 25.9599H41.5548C41.7923 25.9599 41.9823 26.126 42.0535 26.3398C42.1248 26.5299 42.1722 26.7198 42.196 26.9336C42.2434 27.1712 42.2911 27.4323 42.3147 27.6699C42.3385 27.9311 42.3623 28.2161 42.3623 28.5249C43.0754 27.6924 43.9371 26.9997 44.9035 26.4823C45.9961 25.8648 47.2548 25.556 48.5134 25.556C48.6798 25.5324 48.8223 25.6511 48.8461 25.8174V30.5435C48.8461 30.7337 48.7272 30.8049 48.466 30.8049C47.611 30.7811 46.7322 30.8523 45.901 31.0423C45.2123 31.1848 44.5473 31.3985 43.906 31.6835C43.4547 31.8973 43.0272 32.1823 42.6948 32.5623V44.6748C42.6948 44.9124 42.5997 45.0073 42.3859 45.0073H37.7073C37.5173 45.0311 37.351 44.9124 37.3272 44.7223V31.4698C37.3272 30.8998 37.3272 30.3062 37.3036 29.6885C37.2798 29.0711 37.2798 28.4537 37.2559 27.836C37.2559 27.2898 37.2085 26.7673 37.1611 26.2211C37.1373 26.1024 37.2085 25.9835 37.3272 25.9599C37.3272 25.9361 37.3748 25.9361 37.3984 25.9599Z" fill="#9999FF"/>
</svg>
